<svg xmlns="http://www.w3.org/2000/svg" xmlns:xlink="http://www.w3.org/1999/xlink" viewBox="0 0 277.78 384.16"><defs><mask id="a" x="0" y="0" width="277.78" height="384.16" maskUnits="userSpaceOnUse"><g transform="translate(-352.61 -320.03)"><path d="M526.22,320H378.65a26.19,26.19,0,0,0-26,26.19V678a26.19,26.19,0,0,0,26,26.19H604.35a26.19,26.19,0,0,0,26-26.19V424.8Z" style="fill:#fff"/></g></mask><linearGradient id="c" x1="45.96" y1="988.89" x2="45.96" y2="983.49" gradientTransform="matrix(16.34, 0, 0, -16.43, -521.32, 16350.22)" gradientUnits="userSpaceOnUse"><stop offset="0" stop-color="#1a237e" stop-opacity="0.2"/><stop offset="1" stop-color="#1a237e" stop-opacity="0.02"/></linearGradient><radialGradient id="i" cx="20.41" cy="1006.26" r="9.53" gradientTransform="matrix(47, 0, 0, -47, -598, 47624.49)" gradientUnits="userSpaceOnUse"><stop offset="0" stop-color="#fff" stop-opacity="0.1"/><stop offset="1" stop-color="#fff" stop-opacity="0"/></radialGradient></defs><title>Google Docs logo</title><g style="mask:url(#a)"><path d="M526.22,320H378.65a26.19,26.19,0,0,0-26,26.19V678a26.19,26.19,0,0,0,26,26.19H604.35a26.19,26.19,0,0,0,26-26.19V424.8l-60.76-43.65Z" transform="translate(-352.61 -320.03)" style="fill:#4285f4"/></g><g style="mask:url(#a)"><polygon points="181.23 97.11 277.78 194.2 277.78 104.77 181.23 97.11" style="fill:url(#c)"/></g><g style="mask:url(#a)"><path d="M422.06,599.42H560.94V582H422.06Zm0,34.92H526.22V616.89H422.06Zm0-122.23v17.46H560.94V512.11Zm0,52.39H560.94V547H422.06Z" transform="translate(-352.61 -320.03)" style="fill:#f1f1f1"/></g><g style="mask:url(#a)"><path d="M526.22,320v78.58a26.11,26.11,0,0,0,26,26.19h78.13Z" transform="translate(-352.61 -320.03)" style="fill:#a1c2fa"/></g><g style="mask:url(#a)"><path d="M378.65,320a26.19,26.19,0,0,0-26,26.19v2.18a26.19,26.19,0,0,1,26-26.19H526.22V320Z" transform="translate(-352.61 -320.03)" style="fill:#fff;fill-opacity:0.20000000298023224"/></g><g style="mask:url(#a)"><path d="M604.35,702H378.65a26.19,26.19,0,0,1-26-26.19V678a26.19,26.19,0,0,0,26,26.19H604.35a26.19,26.19,0,0,0,26-26.19v-2.18A26.19,26.19,0,0,1,604.35,702Z" transform="translate(-352.61 -320.03)" style="fill:#1a237e;fill-opacity:0.20000000298023224"/></g><g style="mask:url(#a)"><path d="M552.26,424.8a26.11,26.11,0,0,1-26-26.19v2.18a26.11,26.11,0,0,0,26,26.19h78.13V424.8Z" transform="translate(-352.61 -320.03)" style="fill:#1a237e;fill-opacity:0.10000000149011612"/></g><path d="M526.22,320H378.65a26.19,26.19,0,0,0-26,26.19V678a26.19,26.19,0,0,0,26,26.19H604.35a26.19,26.19,0,0,0,26-26.19V424.8Z" transform="translate(-352.61 -320.03)" style="fill:url(#i)"/></svg>