<?xml version="1.0" encoding="UTF-8"?><svg id="Layer_1" xmlns="http://www.w3.org/2000/svg" xmlns:xlink="http://www.w3.org/1999/xlink" viewBox="0 0 99 85.5"><defs><style>.cls-1{mask:url(#mask);}.cls-2,.cls-3,.cls-4,.cls-5,.cls-6,.cls-7,.cls-8,.cls-9,.cls-10,.cls-11,.cls-12{fill-rule:evenodd;}.cls-2,.cls-7{fill:#fff;}.cls-3{fill:url(#radial-gradient);}.cls-4{fill:#f7f7f7;}.cls-13{mask:url(#mask-1);}.cls-5{fill:#57bb8a;}.cls-6{fill:#bf360c;}.cls-6,.cls-7,.cls-9,.cls-14{isolation:isolate;opacity:.2;}.cls-8{fill:#0f9d58;}.cls-9{fill:#263238;}.cls-10{fill:url(#linear-gradient);}.cls-11{fill:#f1f1f1;}.cls-14{fill:none;}.cls-12{fill:#f4b400;}</style><mask id="mask" x="0" y="0" width="99" height="85.5" maskUnits="userSpaceOnUse"><g id="a"><path class="cls-2" d="M92.25,0H6.75C3.02,0,0,3.02,0,6.75v72c0,3.73,3.02,6.75,6.75,6.75h85.5c3.73,0,6.75-3.02,6.75-6.75V6.75C99,3.02,95.98,0,92.25,0Z"/></g></mask><linearGradient id="linear-gradient" x1="73.08" y1=".71" x2="73.08" y2="-8.26" gradientTransform="translate(0 77.33) scale(1 -1)" gradientUnits="userSpaceOnUse"><stop offset="0" stop-color="#bf360c" stop-opacity=".2"/><stop offset="1" stop-color="#bf360c" stop-opacity=".02"/></linearGradient><mask id="mask-1" x="0" y="0" width="99" height="85.5" maskUnits="userSpaceOnUse"><g id="b"><path class="cls-2" d="M92.25,0H6.75C3.02,0,0,3.02,0,6.75v72c0,3.73,3.02,6.75,6.75,6.75h85.5c3.73,0,6.75-3.02,6.75-6.75V6.75C99,3.02,95.98,0,92.25,0Z"/></g></mask><radialGradient id="radial-gradient" cx="-528.93" cy="484.75" fx="-528.93" fy="484.75" r="1" gradientTransform="translate(62544.02 49503.49) scale(118.24 -102.12)" gradientUnits="userSpaceOnUse"><stop offset="0" stop-color="#fff" stop-opacity=".1"/><stop offset="1" stop-color="#fff" stop-opacity="0"/></radialGradient></defs><g class="cls-1"><path class="cls-8" d="M9,9h81v67.5H9V9Z"/><path class="cls-5" d="M31.5,45c2.8,0,5.06-2.26,5.07-5.06s-2.26-5.06-5.06-5.07h0c-2.8,0-5.06,2.27-5.06,5.07,0,2.79,2.27,5.06,5.06,5.06ZM72.56,39.94c0,2.8-2.26,5.06-5.06,5.07s-5.06-2.26-5.07-5.06h0c0-2.8,2.27-5.07,5.07-5.07,2.79,0,5.06,2.27,5.06,5.06ZM56.25,54.81c0-3.56,5.83-6.43,11.25-6.43s11.25,2.87,11.25,6.43v3.69h-22.5v-3.7ZM20.25,54.81c0-3.56,5.83-6.43,11.25-6.43s11.25,2.87,11.25,6.43v3.69h-22.5v-3.7Z"/><path class="cls-4" d="M56.25,33.75c0,3.73-3.02,6.75-6.74,6.75-3.73,0-6.75-3.02-6.76-6.75h0c0-3.73,3.03-6.75,6.76-6.75s6.74,3.03,6.74,6.75ZM33.75,54c0-4.97,8.16-9,15.75-9s15.75,4.03,15.75,9v4.5h-31.5v-4.5Z"/><path class="cls-14" d="M55.12,68.63h27v11.34h-27v-11.34Z"/><path class="cls-11" d="M58.5,72h20.25v4.5h-20.25v-4.5Z"/><path class="cls-12" d="M6.75,0h85.5c3.73,0,6.75,3.02,6.75,6.75v72c0,3.73-3.02,6.75-6.75,6.75H6.75c-3.73,0-6.75-3.02-6.75-6.75V6.75C0,3.02,3.02,0,6.75,0ZM9,76.5h81V9H9v67.5Z"/><path class="cls-7" d="M92.25,0H6.75C3.02,0,0,3.02,0,6.75v.56C0,3.58,3.02.56,6.75.56h85.5c3.73,0,6.75,3.02,6.75,6.75v-.56c0-3.73-3.02-6.75-6.75-6.75h0Z"/><path class="cls-6" d="M92.25,84.94H6.75c-3.73,0-6.75-3.02-6.75-6.75v.56c0,3.73,3.02,6.75,6.75,6.75h85.5c3.73,0,6.75-3.02,6.75-6.75v-.56c0,3.73-3.02,6.75-6.75,6.75h0Z"/><path class="cls-10" d="M78.72,76.5h-20.25l9,9h20.24l-8.98-9Z"/><path class="cls-9" d="M9,8.44h81v.56H9v-.56Z"/></g><g class="cls-13"><path class="cls-7" d="M9,76.5h81v.56H9v-.56Z"/></g><path class="cls-3" d="M92.25,0H6.75C3.02,0,0,3.02,0,6.75v72c0,3.73,3.02,6.75,6.75,6.75h85.5c3.73,0,6.75-3.02,6.75-6.75V6.75C99,3.02,95.98,0,92.25,0Z"/></svg>