<svg xmlns="http://www.w3.org/2000/svg" viewBox="0 0 135 46.49"><defs><style>.a{fill:#46178f;}</style></defs><title>Kahoot! logo</title><path class="a" d="M536.63,528.33c-6.1.61-11-4.27-11-10.89s4.66-11.91,10.41-11.81a11.59,11.59,0,0,1,11,10.89A11.46,11.46,0,0,1,536.63,528.33ZM503,515.92a11.59,11.59,0,0,1,11-10.89c5.75-.1,10.41,5.19,10.41,11.81s-4.94,11.5-11,10.89A11.46,11.46,0,0,1,503,515.92ZM444.5,496.32l7.12-1.83,0,14.48,12-11.6,6.19,2.38-8.74,9.7,5.8,21.12h-6.29l-4.64-16.18-4.38,4.29.06,11.89-7.12-.25Zm58.26,32h-6.25l-.41-9.63-.58-6.85c-.15-4.8-4.47-3.58-5.78-3l.35,19.47-6-.21-1-37.69,6.09-1.63.14,15.25c6.62-2.11,10.16-2.09,11.05,7.63Zm67.37,4.35,1.77-4.16H576l1.55,4.56-3.68,2.2Zm-23.2-23-1-7.07,5.31.19v-9.93l4.75,2-.08,8.82,6.83.45v4.28l-6.67.37.56,13s0,1,2.1,1a8.92,8.92,0,0,0,4-1.15v6.65c.09,2-2.76,2.87-2.76,2.87-9.12,1.39-8.45-4.67-8.45-4.67l-.3-16.83ZM579.5,494.9l-4.86,31.22-7.73-33.64ZM470,508.63l-1.67-4.4s12.18-5.44,13.62,4.32l-.18,21h-9.24a5.5,5.5,0,0,1-5.3-4.37s-3.12-11.53,9.21-13.72l0-2.81S474.11,506.12,470,508.63Zm61.91,9.23c.26,3.06,2.16,4.73,3.4,4.88,3.16.37,5.85-2.52,5.67-6.2s-1.65-6-4.63-6S531.54,513.86,531.88,517.86Zm-55.48,7.66.17-9.39c-5-.73-5.13,6.09-5.13,6.09C471.93,526.62,476.4,525.52,476.4,525.52Zm38.39-3.38c1.25-.15,3.14-1.82,3.4-4.88.34-4-1.46-7.42-4.44-7.36s-4.45,2.36-4.63,6S511.63,522.51,514.79,522.14Z" transform="translate(-444.5 -488.76)"/></svg>